# xmcd
#
# Track frame offsets:
#	150
#	24240
#	36744
#	61026
#	95014
#	119899
#	135180
#	170271
#	196846
#
# Disc length: 3133 seconds
#
# Revision: 1
# Processed by: cddbd v1.5.1PL2 Copyright (c) Steve Scherf et al.
# Submitted via: EasyCDDAExtractor 9.0.0.1
#
DISCID=750c3b09
DTITLE=The Cult - Copenhagen KB Hallen 10-11-89
DYEAR=1989
DGENRE=Hard Rock
TTITLE0=New York City
TTITLE1=LIl Devil
TTITLE2=Sweet Soul Sister
TTITLE3=American Horse
TTITLE4=Edie
TTITLE5=She Sells Sanctuary
TTITLE6=Sun King
TTITLE7=Fire Woman
TTITLE8=Love Removal Machine
EXTD=
EXTT0=
EXTT1=
EXTT2=
EXTT3=
EXTT4=
EXTT5=
EXTT6=
EXTT7=
EXTT8=
PLAYORDER=
